HIERARCHY
ROOT Hips
{
	OFFSET 0.000000 0.000000 0.000000
	CHANNELS 6 Xposition Yposition Zposition Zrotation Yrotation Xrotation 
	JOINT LeftUpLeg_virtual
	{
		OFFSET 0.000000 0.000000 0.000000
		CHANNELS 3 Zrotation Yrotation Xrotation
		JOINT LeftUpLeg
		{
			OFFSET 10.205400 -3.823500 0.155100
			CHANNELS 3 Zrotation Yrotation Xrotation
			JOINT LeftLeg
			{
				OFFSET 0.708757 -12.982077 0.567790
				CHANNELS 3 Zrotation Yrotation Xrotation
				JOINT LeftFoot
				{
					OFFSET -0.708756 -10.717838 -2.184338
					CHANNELS 3 Zrotation Yrotation Xrotation
					JOINT LeftToeBase
					{
						OFFSET 0.108149 -7.191104 7.560241
						CHANNELS 3 Zrotation Yrotation Xrotation
						End Site
						{
							OFFSET 0.000000 0.000000 0.000000
						}
					}
				}
			}
		}
	}
	JOINT RightUpLeg_virtual
	{
		OFFSET 0.000000 0.000000 0.000000
		CHANNELS 3 Zrotation Yrotation Xrotation
		JOINT RightUpLeg
		{
			OFFSET -10.205400 -3.823500 0.005500
			CHANNELS 3 Zrotation Yrotation Xrotation
			JOINT RightLeg
			{
				OFFSET -0.708756 -12.982134 0.610632
				CHANNELS 3 Zrotation Yrotation Xrotation
				JOINT RightFoot
				{
					OFFSET 0.708754 -10.717769 -1.945823
					CHANNELS 3 Zrotation Yrotation Xrotation
					JOINT RightToeBase
					{
						OFFSET -0.108140 -7.191069 7.372968
						CHANNELS 3 Zrotation Yrotation Xrotation
						End Site
						{
							OFFSET 0.000000 0.000000 0.000000
						}
					}
				}
			}
		}
	}
	JOINT Spine_virtual
	{
		OFFSET 0.000000 0.000000 0.000000
		CHANNELS 3 Zrotation Yrotation Xrotation
		JOINT Spine
		{
			OFFSET 0.000000 6.876099 0.125700
			CHANNELS 3 Zrotation Yrotation Xrotation
			JOINT Spine1
			{
				OFFSET 0.000000 8.022060 0.146608
				CHANNELS 3 Zrotation Yrotation Xrotation
				JOINT Spine2
				{
					OFFSET 0.000000 9.168068 0.167552
					CHANNELS 3 Zrotation Yrotation Xrotation
					JOINT Neck_virtual
					{
						OFFSET 0.000000 0.000000 0.000000
						CHANNELS 3 Zrotation Yrotation Xrotation
						JOINT Neck
						{
							OFFSET 0.000000 10.314075 0.188496
							CHANNELS 3 Zrotation Yrotation Xrotation
							JOINT Head
							{
								OFFSET 0.000000 7.643700 -2.377400
								CHANNELS 3 Zrotation Yrotation Xrotation
								End Site
								{
									OFFSET 0.000000 0.000000 0.000000
								}
							}
						}
					}
					JOINT LeftShoulder_virtual
					{
						OFFSET 0.000000 0.000000 0.000000
						CHANNELS 3 Zrotation Yrotation Xrotation
						JOINT LeftShoulder
						{
							OFFSET 4.392200 8.824978 0.174984
							CHANNELS 3 Zrotation Yrotation Xrotation
							JOINT LeftArm
							{
								OFFSET 8.771219 -2.981674 -0.026999
								CHANNELS 3 Zrotation Yrotation Xrotation
								JOINT LeftForeArm
								{
									OFFSET 8.512804 0.000000 -0.000000
									CHANNELS 3 Zrotation Yrotation Xrotation
									JOINT LeftHand
									{
										OFFSET 18.484802 0.000000 -0.000000
										CHANNELS 3 Zrotation Yrotation Xrotation
										End Site
										{
											OFFSET 0.000000 0.000000 0.000000
										}
									}
								}
							}
						}
					}
					JOINT RightShoulder_virtual
					{
						OFFSET 0.000000 0.000000 0.000000
						CHANNELS 3 Zrotation Yrotation Xrotation
						JOINT RightShoulder
						{
							OFFSET -4.392200 8.824993 0.141379
							CHANNELS 3 Zrotation Yrotation Xrotation
							JOINT RightArm
							{
								OFFSET -8.771282 -2.981682 -0.094208
								CHANNELS 3 Zrotation Yrotation Xrotation
								JOINT RightForeArm
								{
									OFFSET -8.494598 0.000000 0.000000
									CHANNELS 3 Zrotation Yrotation Xrotation
									JOINT RightHand
									{
										OFFSET -18.483803 0.000000 0.000001
										CHANNELS 3 Zrotation Yrotation Xrotation
										End Site
										{
											OFFSET 0.000000 0.000000 0.000000
										}
									}
								}
							}
						}
					}
				}
			}
		}
	}
}
MOTION
Frames: 5
Frame Time: 0.033333
-4.364204 36.195370 41.463367 -179.834059 20.152309 -179.253165 -3.654069 -2.604320 14.400947 -9.400263 10.176042 -32.120816 15.182689 12.834938 23.592177 -0.192412 7.068458 10.670735 0.000000 0.000000 0.000000 4.151304 -0.932286 10.372609 0.040932 3.040184 -36.933404 -4.663421 1.980681 21.984951 7.558047 6.012400 18.040782 0.000000 0.000000 0.000000 -0.046163 0.297914 5.316888 3.785366 1.253627 -1.361454 -0.372549 -2.717428 13.479471 -0.043789 0.103389 0.121563 -0.233359 -1.325905 13.909283 -2.799894 1.065373 19.538801 0.000000 0.000000 0.000000 1.070263 -0.941553 10.544234 -8.536387 -11.316594 4.018001 -56.897518 -4.648212 2.256726 -129.355286 -86.378254 148.692057 0.000000 0.000000 0.000000 -2.697900 0.762467 9.712741 18.753439 16.552788 3.679210 43.397492 -7.602700 21.537453 -160.088433 78.137111 -162.307889 0.000000 0.000000 0.000000 
-4.372315 36.190273 41.495872 -179.854454 20.255619 -179.275554 -3.667988 -2.588508 14.377365 -9.420039 10.226987 -32.127844 15.204532 12.828002 23.612562 -0.199100 7.074024 10.657795 0.000000 0.000000 0.000000 4.111148 -0.943623 10.323406 0.052339 3.074621 -36.894851 -4.653809 1.911134 21.753922 7.637617 6.007603 18.268145 0.000000 0.000000 0.000000 -0.055299 0.322370 5.307866 3.739287 1.214690 -1.341751 -0.378432 -2.788749 13.458784 -0.049350 0.162925 0.150699 -0.248093 -1.343486 13.871635 -2.871299 1.058757 19.589269 0.000000 0.000000 0.000000 1.132598 -0.987445 10.496722 -8.535233 -11.322778 3.979631 -56.867882 -4.478430 2.268904 -131.122283 -86.382365 150.449383 0.000000 0.000000 0.000000 -2.671629 0.802516 9.744907 18.840281 16.469666 3.608992 43.575442 -7.919097 21.381130 -160.985250 78.006744 -163.183833 0.000000 0.000000 0.000000 
-4.378668 36.185474 41.531319 -179.833075 20.371761 -179.269407 -3.653656 -2.579543 14.350622 -9.449819 10.275618 -32.130501 15.223732 12.829926 23.608998 -0.227518 7.076184 10.658548 0.000000 0.000000 0.000000 4.121776 -0.943390 10.303345 0.040165 3.161431 -36.915970 -4.669508 1.827814 21.599249 7.708417 5.986327 18.484652 0.000000 0.000000 0.000000 -0.057289 0.184481 5.312665 3.684991 1.221773 -1.315252 -0.364945 -2.670569 13.425221 -0.007544 0.191236 0.120755 -0.271635 -1.300663 13.839878 -2.811067 1.128101 19.613865 0.000000 0.000000 0.000000 1.096548 -1.025821 10.489163 -8.512065 -11.355679 3.986318 -56.817902 -4.416731 2.303872 -130.012651 -86.306257 149.329464 0.000000 0.000000 0.000000 -2.699436 0.792372 9.783645 18.970628 16.538873 3.739093 43.706398 -7.908224 21.493601 -160.397704 77.994197 -162.570865 0.000000 0.000000 0.000000 
-4.384521 36.181652 41.566177 -179.836654 20.444759 -179.267180 -3.645693 -2.574419 14.324816 -9.491155 10.332957 -32.140667 15.258769 12.833503 23.588320 -0.259757 7.083187 10.662499 0.000000 0.000000 0.000000 4.128118 -0.928898 10.264166 0.012680 3.207938 -36.914840 -4.669761 1.721349 21.490494 7.784746 5.957388 18.637836 0.000000 0.000000 0.000000 -0.033909 0.363565 5.288792 3.656589 1.174290 -1.292511 -0.370104 -2.760072 13.420712 -0.029410 0.194001 0.136773 -0.251319 -1.308015 13.809816 -2.827682 1.110720 19.671766 0.000000 0.000000 0.000000 1.104200 -0.997250 10.417585 -8.498935 -11.452322 4.026344 -56.809876 -4.387787 2.239575 -130.318315 -86.315436 149.578247 0.000000 0.000000 0.000000 -2.673951 0.818333 9.717619 19.034276 16.545344 3.796073 43.783603 -7.893037 21.627516 -160.225965 78.029939 -162.382475 0.000000 0.000000 0.000000 
-4.393513 36.179317 41.603611 -179.829182 20.431666 -179.292179 -3.633410 -2.546107 14.304177 -9.518612 10.360566 -32.159283 15.279312 12.851487 23.556720 -0.312920 7.067310 10.656548 0.000000 0.000000 0.000000 4.135035 -0.926190 10.277063 -0.013944 3.228655 -36.928838 -4.684341 1.594127 21.368723 7.857232 5.933287 18.723114 0.000000 0.000000 0.000000 -0.026160 0.344660 5.335146 3.638640 1.096216 -1.253530 -0.365710 -2.818003 13.381408 -0.042952 0.166111 0.115254 -0.258626 -1.262616 13.841899 -2.940871 1.002257 19.768610 0.000000 0.000000 0.000000 1.055560 -0.907168 10.337102 -8.448642 -11.443739 4.067682 -56.900639 -4.372745 2.224808 -132.154994 -86.499046 151.409994 0.000000 0.000000 0.000000 -2.695460 0.786227 9.764288 19.110728 16.669833 3.645393 43.892664 -7.811987 21.799146 -160.381038 78.119414 -162.514598 0.000000 0.000000 0.000000 
